{"title":"Rapid.Fire.1992.DVDRiP.SVCD.SWESUB-DUPVCD","uid":7017998,"size":1689272575,"categoryP":"video","categoryS":"movies","magnet":"?xt=urn:btih:e06bc78c3d719f9211acea6db5612ea58be607f6&amp;dn=Rapid.Fire.1992.DVDRiP.SVCD.SWESUB-DUPVCD&amp;tr=udp%3A%2F%2Ftracker.openbittorrent.com%3A80&amp;tr=udp%3A%2F%2Fopen.demonii.com%3A1337&amp;tr=udp%3A%2F%2Ftracker.coppersurfer.tk%3A6969&amp;tr=udp%3A%2F%2Fexodus.desync.com%3A6969","seeders":0,"leechers":1,"uploader":null,"files":-1,"time":1328730593,"description":"   When student Jake Lo witnesses a killing, he finds \n   himself caught between two feuding drug lords. \n   Betrayed and set up by the federal agents protecting\n   him, the only one he can trust is Ryan, a \n   single-minded Chicago cop who reminds Jake of his \n   deceased father.\n   To clear his name, Jake agrees to help Ryan bring\n   down the drug lords\n\n\n\nFormat                         : CDXA/MPEG-PS\nFile size                      : 804 MiB\nDuration                       : 46mn 47s\nOverall bit rate mode          : Variable\nOverall bit rate               : 2 404 Kbps\n\nVideo\nID                             : 224 (0xE0)\nFormat                         : MPEG Video\nFormat version                 : Version 2\nFormat profile                 : Main@Main\nFormat settings, BVOP          : Yes\nFormat settings, Matrix        : Custom\nFormat settings, GOP           : M=3, N=15\nDuration                       : 46mn 47s\nBit rate mode                  : Variable\nBit rate                       : 2 164 Kbps\nMaximum bit rate               : 2 530 Kbps\nWidth                          : 480 pixels\nHeight                         : 576 pixels\nDisplay aspect ratio           : 4:3\nFrame rate                     : 25.000 fps\nColor space                    : YUV\nChroma subsampling             : 4:2:0\nBit depth                      : 8 bits\nScan type                      : Interlaced\nScan order                     : Top Field First\nCompression mode               : Lossy\nBits/(Pixel*Frame)             : 0.313\nStream size                    : 724 MiB (90%)\n\nAudio\nID                             : 192 (0xC0)\nFormat                         : MPEG Audio\nFormat version                 : Version 1\nFormat profile                 : Layer 2\nDuration                       : 46mn 47s\nBit rate mode                  : Constant\nBit rate                       : 192 Kbps\nChannel(s)                     : 2 channels\nSampling rate                  : 48.0 KHz\nCompression mode               : Lossy\nDelay relative to video        : 1s 322ms\nStream size                    : 64.3 MiB (8%)\n","torrent":{"xt":"urn:btih:e06bc78c3d719f9211acea6db5612ea58be607f6","amp;dn":"Rapid.Fire.1992.DVDRiP.SVCD.SWESUB-DUPVCD","amp;tr":["udp%3A%2F%2Ftracker.openbittorrent.com%3A80","udp%3A%2F%2Fopen.demonii.com%3A1337","udp%3A%2F%2Ftracker.coppersurfer.tk%3A6969","udp%3A%2F%2Fexodus.desync.com%3A6969"],"infoHash":"e06bc78c3d719f9211acea6db5612ea58be607f6","infoHashBuffer":{"type":"Buffer","data":[224,107,199,140,61,113,159,146,17,172,234,109,181,97,46,165,139,230,7,246]},"announce":[],"urlList":[]}}